<mxfile host="app.diagrams.net" agent="Mozilla/5.0 (Windows NT 10.0; Win64; x64) AppleWebKit/537.36 (KHTML, like Gecko) Chrome/131.0.0.0 Safari/537.36 Edg/131.0.0.0" version="26.0.5">
  <diagram id="C5RBs43oDa-KdzZeNtuy" name="Page-1">
    <mxGraphModel dx="1290" dy="658" grid="1" gridSize="10" guides="1" tooltips="1" connect="1" arrows="1" fold="1" page="1" pageScale="1" pageWidth="827" pageHeight="1169" math="0" shadow="0">
      <root>
        <mxCell id="WIyWlLk6GJQsqaUBKTNV-0" />
        <mxCell id="WIyWlLk6GJQsqaUBKTNV-1" parent="WIyWlLk6GJQsqaUBKTNV-0" />
        <mxCell id="GBfcgXcapLKAUyN3c36M-2" value="" style="edgeStyle=orthogonalEdgeStyle;rounded=0;orthogonalLoop=1;jettySize=auto;html=1;" edge="1" parent="WIyWlLk6GJQsqaUBKTNV-1" source="WIyWlLk6GJQsqaUBKTNV-3" target="GBfcgXcapLKAUyN3c36M-1">
          <mxGeometry relative="1" as="geometry" />
        </mxCell>
        <mxCell id="WIyWlLk6GJQsqaUBKTNV-3" value="开始" style="rounded=1;whiteSpace=wrap;html=1;fontSize=12;glass=0;strokeWidth=1;shadow=0;" parent="WIyWlLk6GJQsqaUBKTNV-1" vertex="1">
          <mxGeometry x="30" y="430" width="120" height="40" as="geometry" />
        </mxCell>
        <mxCell id="GBfcgXcapLKAUyN3c36M-0" value="&lt;font style=&quot;font-size: 18px;&quot;&gt;&lt;b style=&quot;&quot;&gt;背景:1.传统ANN构建会导致短边过多,尤其在稠密区域,&lt;/b&gt;&lt;/font&gt;&lt;div&gt;&lt;font style=&quot;font-size: 18px;&quot;&gt;&lt;b&gt;会导致遍历大量短边,降低整体搜索效率.&lt;/b&gt;&lt;/font&gt;&lt;div&gt;&lt;font style=&quot;font-size: 18px;&quot;&gt;&lt;b&gt;&amp;nbsp; &amp;nbsp; &amp;nbsp; &amp;nbsp; &amp;nbsp; &amp;nbsp; &amp;nbsp; &amp;nbsp; &amp;nbsp; 2.通过一定的方式引入长边,想以此来作为高速公路连接&lt;/b&gt;&lt;/font&gt;&lt;/div&gt;&lt;div&gt;&lt;font style=&quot;font-size: 18px;&quot;&gt;&lt;b&gt;&amp;nbsp; &amp;nbsp; &amp;nbsp; &amp;nbsp; &amp;nbsp; &amp;nbsp; &amp;nbsp; &amp;nbsp; &amp;nbsp; &amp;nbsp; &amp;nbsp; &amp;nbsp; &amp;nbsp; &amp;nbsp; &amp;nbsp; &amp;nbsp; &amp;nbsp;远距离的节点,但选择长边的策略较难把握,导致最后效果不好.&lt;/b&gt;&lt;/font&gt;&lt;/div&gt;&lt;/div&gt;&lt;div&gt;&lt;font style=&quot;font-size: 18px;&quot;&gt;&lt;b&gt;&lt;span style=&quot;white-space: pre;&quot;&gt;&#x9;&lt;/span&gt;&lt;span style=&quot;white-space: pre;&quot;&gt;&#x9;&lt;/span&gt;&lt;span style=&quot;white-space: pre;&quot;&gt;&#x9;&lt;/span&gt;&lt;span style=&quot;white-space: pre;&quot;&gt;&#x9;&lt;/span&gt;&amp;nbsp; &amp;nbsp; &amp;nbsp;3.既然长边的添加策略比较难以选择,通过训练神经网络模型,动态地&lt;/b&gt;&lt;/font&gt;&lt;/div&gt;&lt;div&gt;&lt;font style=&quot;font-size: 18px;&quot;&gt;&lt;b&gt;&lt;span style=&quot;white-space: pre;&quot;&gt;&#x9;&lt;/span&gt;&lt;span style=&quot;white-space: pre;&quot;&gt;&#x9;&lt;/span&gt;&lt;span style=&quot;white-space: pre;&quot;&gt;&#x9;&lt;/span&gt;&lt;span style=&quot;white-space: pre;&quot;&gt;&#x9;&lt;/span&gt;&lt;span style=&quot;white-space: pre;&quot;&gt;&#x9;&lt;/span&gt;学习长边添加的策略,&lt;span style=&quot;background-color: transparent; color: light-dark(rgb(0, 0, 0), rgb(255, 255, 255));&quot;&gt;让模型自动判断长边的添加,可能会提升效率.&lt;/span&gt;&lt;/b&gt;&lt;/font&gt;&lt;/div&gt;" style="text;html=1;align=center;verticalAlign=middle;resizable=0;points=[];autosize=1;strokeColor=none;fillColor=none;" vertex="1" parent="WIyWlLk6GJQsqaUBKTNV-1">
          <mxGeometry y="190" width="740" height="140" as="geometry" />
        </mxCell>
        <mxCell id="GBfcgXcapLKAUyN3c36M-6" value="" style="edgeStyle=orthogonalEdgeStyle;rounded=0;orthogonalLoop=1;jettySize=auto;html=1;" edge="1" parent="WIyWlLk6GJQsqaUBKTNV-1" source="GBfcgXcapLKAUyN3c36M-1" target="GBfcgXcapLKAUyN3c36M-5">
          <mxGeometry relative="1" as="geometry" />
        </mxCell>
        <mxCell id="GBfcgXcapLKAUyN3c36M-33" style="edgeStyle=orthogonalEdgeStyle;rounded=0;orthogonalLoop=1;jettySize=auto;html=1;entryX=0;entryY=0.5;entryDx=0;entryDy=0;" edge="1" parent="WIyWlLk6GJQsqaUBKTNV-1" source="GBfcgXcapLKAUyN3c36M-1" target="GBfcgXcapLKAUyN3c36M-31">
          <mxGeometry relative="1" as="geometry">
            <Array as="points">
              <mxPoint x="280" y="625" />
            </Array>
          </mxGeometry>
        </mxCell>
        <mxCell id="GBfcgXcapLKAUyN3c36M-1" value="1.通过索引图构建算法构建索引,并标记一些边作为长边" style="rounded=0;whiteSpace=wrap;html=1;" vertex="1" parent="WIyWlLk6GJQsqaUBKTNV-1">
          <mxGeometry x="200" y="422.5" width="170" height="55" as="geometry" />
        </mxCell>
        <mxCell id="GBfcgXcapLKAUyN3c36M-42" value="" style="edgeStyle=orthogonalEdgeStyle;rounded=0;orthogonalLoop=1;jettySize=auto;html=1;" edge="1" parent="WIyWlLk6GJQsqaUBKTNV-1" source="GBfcgXcapLKAUyN3c36M-5" target="GBfcgXcapLKAUyN3c36M-41">
          <mxGeometry relative="1" as="geometry" />
        </mxCell>
        <mxCell id="GBfcgXcapLKAUyN3c36M-5" value="2.提取长边特征" style="rounded=0;whiteSpace=wrap;html=1;" vertex="1" parent="WIyWlLk6GJQsqaUBKTNV-1">
          <mxGeometry x="410" y="422.5" width="170" height="55" as="geometry" />
        </mxCell>
        <mxCell id="GBfcgXcapLKAUyN3c36M-10" value="" style="edgeStyle=orthogonalEdgeStyle;rounded=0;orthogonalLoop=1;jettySize=auto;html=1;" edge="1" parent="WIyWlLk6GJQsqaUBKTNV-1" source="GBfcgXcapLKAUyN3c36M-7" target="GBfcgXcapLKAUyN3c36M-9">
          <mxGeometry relative="1" as="geometry" />
        </mxCell>
        <mxCell id="GBfcgXcapLKAUyN3c36M-7" value="训练二分类模型(神经网络)" style="rounded=0;whiteSpace=wrap;html=1;" vertex="1" parent="WIyWlLk6GJQsqaUBKTNV-1">
          <mxGeometry x="800" y="330" width="170" height="55" as="geometry" />
        </mxCell>
        <mxCell id="GBfcgXcapLKAUyN3c36M-26" style="edgeStyle=orthogonalEdgeStyle;rounded=0;orthogonalLoop=1;jettySize=auto;html=1;entryX=0.5;entryY=0;entryDx=0;entryDy=0;" edge="1" parent="WIyWlLk6GJQsqaUBKTNV-1" source="GBfcgXcapLKAUyN3c36M-9" target="GBfcgXcapLKAUyN3c36M-25">
          <mxGeometry relative="1" as="geometry" />
        </mxCell>
        <mxCell id="GBfcgXcapLKAUyN3c36M-9" value="评判标准,例如:&lt;div&gt;P&amp;gt;0.6?有效;剩余无效&lt;/div&gt;" style="rounded=0;whiteSpace=wrap;html=1;" vertex="1" parent="WIyWlLk6GJQsqaUBKTNV-1">
          <mxGeometry x="800" y="230" width="170" height="55" as="geometry" />
        </mxCell>
        <mxCell id="GBfcgXcapLKAUyN3c36M-15" value="" style="strokeWidth=2;html=1;shape=mxgraph.flowchart.annotation_1;align=left;pointerEvents=1;direction=north;" vertex="1" parent="WIyWlLk6GJQsqaUBKTNV-1">
          <mxGeometry x="217.5" y="340" width="135" height="75" as="geometry" />
        </mxCell>
        <mxCell id="GBfcgXcapLKAUyN3c36M-16" value="&lt;b&gt;寻找合适的长边选择策&lt;/b&gt;&lt;div&gt;&lt;b&gt;略,有助于更快收敛,&lt;/b&gt;&lt;/div&gt;&lt;div&gt;&lt;b&gt;先使用HSG作为基准&lt;/b&gt;&lt;/div&gt;" style="text;html=1;align=center;verticalAlign=middle;resizable=0;points=[];autosize=1;strokeColor=none;fillColor=none;" vertex="1" parent="WIyWlLk6GJQsqaUBKTNV-1">
          <mxGeometry x="215" y="350" width="140" height="60" as="geometry" />
        </mxCell>
        <mxCell id="GBfcgXcapLKAUyN3c36M-18" value="" style="strokeWidth=2;html=1;shape=mxgraph.flowchart.annotation_1;align=left;pointerEvents=1;direction=south;" vertex="1" parent="WIyWlLk6GJQsqaUBKTNV-1">
          <mxGeometry x="427.5" y="487.5" width="135" height="75" as="geometry" />
        </mxCell>
        <mxCell id="GBfcgXcapLKAUyN3c36M-21" value="&lt;div&gt;&lt;b&gt;合适的特征选择,防止误判&lt;/b&gt;&lt;/div&gt;&lt;b&gt;1).两个节点的欧式距离&lt;/b&gt;&lt;div&gt;&lt;b&gt;2).两个节点的连接度&lt;/b&gt;&lt;/div&gt;&lt;div&gt;&lt;b&gt;3)两个节点的路径长度&lt;/b&gt;&lt;/div&gt;&lt;div&gt;&lt;br&gt;&lt;/div&gt;" style="text;html=1;align=center;verticalAlign=middle;resizable=0;points=[];autosize=1;strokeColor=none;fillColor=none;" vertex="1" parent="WIyWlLk6GJQsqaUBKTNV-1">
          <mxGeometry x="415" y="490" width="160" height="90" as="geometry" />
        </mxCell>
        <mxCell id="GBfcgXcapLKAUyN3c36M-29" style="edgeStyle=orthogonalEdgeStyle;rounded=0;orthogonalLoop=1;jettySize=auto;html=1;entryX=0.5;entryY=1;entryDx=0;entryDy=0;" edge="1" parent="WIyWlLk6GJQsqaUBKTNV-1" source="GBfcgXcapLKAUyN3c36M-23" target="GBfcgXcapLKAUyN3c36M-7">
          <mxGeometry relative="1" as="geometry" />
        </mxCell>
        <mxCell id="GBfcgXcapLKAUyN3c36M-48" value="" style="edgeStyle=orthogonalEdgeStyle;rounded=0;orthogonalLoop=1;jettySize=auto;html=1;" edge="1" parent="WIyWlLk6GJQsqaUBKTNV-1" source="GBfcgXcapLKAUyN3c36M-23" target="GBfcgXcapLKAUyN3c36M-47">
          <mxGeometry relative="1" as="geometry" />
        </mxCell>
        <mxCell id="GBfcgXcapLKAUyN3c36M-23" value="是否迭代了一定轮次(n)" style="rhombus;whiteSpace=wrap;html=1;" vertex="1" parent="WIyWlLk6GJQsqaUBKTNV-1">
          <mxGeometry x="1041.88" y="410" width="146.25" height="80" as="geometry" />
        </mxCell>
        <mxCell id="GBfcgXcapLKAUyN3c36M-27" value="" style="edgeStyle=orthogonalEdgeStyle;rounded=0;orthogonalLoop=1;jettySize=auto;html=1;" edge="1" parent="WIyWlLk6GJQsqaUBKTNV-1" source="GBfcgXcapLKAUyN3c36M-25" target="GBfcgXcapLKAUyN3c36M-23">
          <mxGeometry relative="1" as="geometry" />
        </mxCell>
        <mxCell id="GBfcgXcapLKAUyN3c36M-25" value="通过recall,loss等评价&lt;div&gt;模型,进一步优化模型&lt;/div&gt;" style="rounded=0;whiteSpace=wrap;html=1;" vertex="1" parent="WIyWlLk6GJQsqaUBKTNV-1">
          <mxGeometry x="1030" y="330" width="170" height="55" as="geometry" />
        </mxCell>
        <mxCell id="GBfcgXcapLKAUyN3c36M-30" value="否" style="text;html=1;align=center;verticalAlign=middle;resizable=0;points=[];autosize=1;strokeColor=none;fillColor=none;" vertex="1" parent="WIyWlLk6GJQsqaUBKTNV-1">
          <mxGeometry x="960" y="470" width="40" height="30" as="geometry" />
        </mxCell>
        <mxCell id="GBfcgXcapLKAUyN3c36M-35" style="edgeStyle=orthogonalEdgeStyle;rounded=0;orthogonalLoop=1;jettySize=auto;html=1;entryX=0.5;entryY=1;entryDx=0;entryDy=0;" edge="1" parent="WIyWlLk6GJQsqaUBKTNV-1" source="GBfcgXcapLKAUyN3c36M-31" target="GBfcgXcapLKAUyN3c36M-7">
          <mxGeometry relative="1" as="geometry" />
        </mxCell>
        <mxCell id="GBfcgXcapLKAUyN3c36M-39" style="edgeStyle=orthogonalEdgeStyle;rounded=0;orthogonalLoop=1;jettySize=auto;html=1;" edge="1" parent="WIyWlLk6GJQsqaUBKTNV-1" source="GBfcgXcapLKAUyN3c36M-31" target="GBfcgXcapLKAUyN3c36M-38">
          <mxGeometry relative="1" as="geometry" />
        </mxCell>
        <mxCell id="GBfcgXcapLKAUyN3c36M-31" value="3.是否优化后的图的相应&lt;div&gt;指标有充分地提升?(qps)&lt;/div&gt;" style="rhombus;whiteSpace=wrap;html=1;" vertex="1" parent="WIyWlLk6GJQsqaUBKTNV-1">
          <mxGeometry x="795" y="585" width="180" height="80" as="geometry" />
        </mxCell>
        <mxCell id="GBfcgXcapLKAUyN3c36M-34" value="是" style="text;html=1;align=center;verticalAlign=middle;resizable=0;points=[];autosize=1;strokeColor=none;fillColor=none;" vertex="1" parent="WIyWlLk6GJQsqaUBKTNV-1">
          <mxGeometry x="1070" y="510" width="40" height="30" as="geometry" />
        </mxCell>
        <mxCell id="GBfcgXcapLKAUyN3c36M-36" value="否" style="text;html=1;align=center;verticalAlign=middle;resizable=0;points=[];autosize=1;strokeColor=none;fillColor=none;" vertex="1" parent="WIyWlLk6GJQsqaUBKTNV-1">
          <mxGeometry x="850" y="477.5" width="40" height="30" as="geometry" />
        </mxCell>
        <mxCell id="GBfcgXcapLKAUyN3c36M-38" value="结束" style="rounded=1;whiteSpace=wrap;html=1;fontSize=12;glass=0;strokeWidth=1;shadow=0;" vertex="1" parent="WIyWlLk6GJQsqaUBKTNV-1">
          <mxGeometry x="825" y="705" width="120" height="40" as="geometry" />
        </mxCell>
        <mxCell id="GBfcgXcapLKAUyN3c36M-40" value="是" style="text;html=1;align=center;verticalAlign=middle;resizable=0;points=[];autosize=1;strokeColor=none;fillColor=none;" vertex="1" parent="WIyWlLk6GJQsqaUBKTNV-1">
          <mxGeometry x="850" y="665" width="40" height="30" as="geometry" />
        </mxCell>
        <mxCell id="GBfcgXcapLKAUyN3c36M-43" style="edgeStyle=orthogonalEdgeStyle;rounded=0;orthogonalLoop=1;jettySize=auto;html=1;entryX=0.5;entryY=1;entryDx=0;entryDy=0;" edge="1" parent="WIyWlLk6GJQsqaUBKTNV-1" source="GBfcgXcapLKAUyN3c36M-41" target="GBfcgXcapLKAUyN3c36M-7">
          <mxGeometry relative="1" as="geometry" />
        </mxCell>
        <mxCell id="GBfcgXcapLKAUyN3c36M-41" value="划分训练/验证/测试&lt;div&gt;集,模型参数设置&lt;/div&gt;" style="rounded=0;whiteSpace=wrap;html=1;" vertex="1" parent="WIyWlLk6GJQsqaUBKTNV-1">
          <mxGeometry x="610" y="422.5" width="170" height="55" as="geometry" />
        </mxCell>
        <mxCell id="GBfcgXcapLKAUyN3c36M-49" style="edgeStyle=orthogonalEdgeStyle;rounded=0;orthogonalLoop=1;jettySize=auto;html=1;entryX=1;entryY=0.5;entryDx=0;entryDy=0;" edge="1" parent="WIyWlLk6GJQsqaUBKTNV-1" source="GBfcgXcapLKAUyN3c36M-47" target="GBfcgXcapLKAUyN3c36M-31">
          <mxGeometry relative="1" as="geometry">
            <Array as="points">
              <mxPoint x="1115" y="625" />
            </Array>
          </mxGeometry>
        </mxCell>
        <mxCell id="GBfcgXcapLKAUyN3c36M-47" value="通过模型对原来图索引&lt;div&gt;的长边进行有效性标记&lt;/div&gt;" style="rounded=0;whiteSpace=wrap;html=1;" vertex="1" parent="WIyWlLk6GJQsqaUBKTNV-1">
          <mxGeometry x="1030" y="540" width="170" height="55" as="geometry" />
        </mxCell>
        <mxCell id="GBfcgXcapLKAUyN3c36M-50" value="" style="strokeWidth=2;html=1;shape=mxgraph.flowchart.annotation_1;align=left;pointerEvents=1;" vertex="1" parent="WIyWlLk6GJQsqaUBKTNV-1">
          <mxGeometry x="1215" y="517.5" width="50" height="100" as="geometry" />
        </mxCell>
        <mxCell id="GBfcgXcapLKAUyN3c36M-51" value="&lt;b&gt;可能会有过拟合&lt;/b&gt;&lt;div&gt;&lt;b&gt;的风险&lt;span style=&quot;background-color: transparent; color: light-dark(rgb(0, 0, 0), rgb(255, 255, 255));&quot;&gt;,需要用&lt;/span&gt;&lt;/b&gt;&lt;/div&gt;&lt;div&gt;&lt;span style=&quot;background-color: transparent; color: light-dark(rgb(0, 0, 0), rgb(255, 255, 255));&quot;&gt;&lt;b&gt;其他的数据集&lt;/b&gt;&lt;/span&gt;&lt;/div&gt;&lt;div&gt;&lt;span style=&quot;background-color: transparent; color: light-dark(rgb(0, 0, 0), rgb(255, 255, 255));&quot;&gt;&lt;b&gt;测试模型泛化能&lt;/b&gt;&lt;/span&gt;&lt;/div&gt;&lt;div&gt;&lt;span style=&quot;background-color: transparent; color: light-dark(rgb(0, 0, 0), rgb(255, 255, 255));&quot;&gt;&lt;b&gt;力,调整模型参数&lt;/b&gt;&lt;/span&gt;&lt;/div&gt;" style="text;html=1;align=center;verticalAlign=middle;resizable=0;points=[];autosize=1;strokeColor=none;fillColor=none;" vertex="1" parent="WIyWlLk6GJQsqaUBKTNV-1">
          <mxGeometry x="1210" y="522.5" width="110" height="90" as="geometry" />
        </mxCell>
        <mxCell id="GBfcgXcapLKAUyN3c36M-52" value="&lt;font style=&quot;font-size: 24px;&quot;&gt;&lt;b style=&quot;&quot;&gt;基于机器学习优化ANN网络中的边选择&lt;/b&gt;&lt;/font&gt;" style="text;html=1;align=center;verticalAlign=middle;resizable=0;points=[];autosize=1;strokeColor=none;fillColor=none;" vertex="1" parent="WIyWlLk6GJQsqaUBKTNV-1">
          <mxGeometry x="210" y="680" width="440" height="40" as="geometry" />
        </mxCell>
      </root>
    </mxGraphModel>
  </diagram>
</mxfile>
